<svg width="48" height="48" viewBox="0 0 48 48" fill="none" xmlns="http://www.w3.org/2000/svg">
<path d="M0 24C0 10.7452 10.7452 0 24 0C37.2548 0 48 10.7452 48 24C48 37.2548 37.2548 48 24 48C10.7452 48 0 37.2548 0 24Z" fill="#F4B615"/>
<path d="M35.2502 15C35.2502 13.7555 34.2447 12.75 33.0002 12.75H17.2502C16.0057 12.75 15.0002 13.7555 15.0002 15C15.0002 16.2445 16.0057 17.25 17.2502 17.25H27.565L13.4111 31.4109C12.5322 32.2898 12.5322 33.7172 13.4111 34.5961C14.29 35.475 15.7174 35.475 16.5963 34.5961L30.7502 20.4352V30.75C30.7502 31.9945 31.7557 33 33.0002 33C34.2447 33 35.2502 31.9945 35.2502 30.75V15Z" fill="#1C3750"/>
</svg>
